<mxfile host="Electron" agent="Mozilla/5.0 (Windows NT 10.0; Win64; x64) AppleWebKit/537.36 (KHTML, like Gecko) draw.io/24.7.5 Chrome/126.0.6478.183 Electron/31.3.0 Safari/537.36" version="24.7.5" pages="2">
  <diagram name="Flowchart" id="uMRnQCASGTI5nY9hgciC">
    <mxGraphModel dx="1036" dy="654" grid="1" gridSize="10" guides="1" tooltips="1" connect="1" arrows="1" fold="1" page="1" pageScale="1" pageWidth="850" pageHeight="1100" math="0" shadow="0">
      <root>
        <mxCell id="0" />
        <mxCell id="1" parent="0" />
        <mxCell id="l2VrBiNuuew72AWs_6SI-1" style="edgeStyle=orthogonalEdgeStyle;rounded=0;orthogonalLoop=1;jettySize=auto;html=1;" parent="1" source="SQHHKWCjb3PO0AhV1Bch-20" target="l2VrBiNuuew72AWs_6SI-2" edge="1">
          <mxGeometry relative="1" as="geometry">
            <mxPoint x="425" y="160" as="targetPoint" />
          </mxGeometry>
        </mxCell>
        <mxCell id="SQHHKWCjb3PO0AhV1Bch-20" value="Start" style="ellipse;whiteSpace=wrap;html=1;" parent="1" vertex="1">
          <mxGeometry x="365" y="10" width="120" height="80" as="geometry" />
        </mxCell>
        <mxCell id="SQHHKWCjb3PO0AhV1Bch-102" style="edgeStyle=orthogonalEdgeStyle;rounded=0;orthogonalLoop=1;jettySize=auto;html=1;entryX=1;entryY=0.5;entryDx=0;entryDy=0;" parent="1" source="SQHHKWCjb3PO0AhV1Bch-28" target="SQHHKWCjb3PO0AhV1Bch-33" edge="1">
          <mxGeometry relative="1" as="geometry">
            <Array as="points">
              <mxPoint x="600" y="470" />
            </Array>
          </mxGeometry>
        </mxCell>
        <mxCell id="SQHHKWCjb3PO0AhV1Bch-28" value="Register User" style="shape=parallelogram;perimeter=parallelogramPerimeter;whiteSpace=wrap;html=1;fixedSize=1;" parent="1" vertex="1">
          <mxGeometry x="540" y="300" width="120" height="60" as="geometry" />
        </mxCell>
        <mxCell id="SQHHKWCjb3PO0AhV1Bch-32" value="Admin" style="ellipse;whiteSpace=wrap;html=1;" parent="1" vertex="1">
          <mxGeometry x="160" y="390" width="120" height="80" as="geometry" />
        </mxCell>
        <mxCell id="SQHHKWCjb3PO0AhV1Bch-33" value="User" style="ellipse;whiteSpace=wrap;html=1;" parent="1" vertex="1">
          <mxGeometry x="364.5" y="430" width="120" height="80" as="geometry" />
        </mxCell>
        <mxCell id="SQHHKWCjb3PO0AhV1Bch-38" style="edgeStyle=orthogonalEdgeStyle;rounded=0;orthogonalLoop=1;jettySize=auto;html=1;" parent="1" source="SQHHKWCjb3PO0AhV1Bch-37" edge="1">
          <mxGeometry relative="1" as="geometry">
            <mxPoint x="130" y="1244" as="targetPoint" />
          </mxGeometry>
        </mxCell>
        <mxCell id="SQHHKWCjb3PO0AhV1Bch-40" style="edgeStyle=orthogonalEdgeStyle;rounded=0;orthogonalLoop=1;jettySize=auto;html=1;entryX=0.41;entryY=-0.002;entryDx=0;entryDy=0;entryPerimeter=0;" parent="1" edge="1">
          <mxGeometry relative="1" as="geometry">
            <mxPoint x="280.00000000000006" y="1243.9899999999998" as="targetPoint" />
            <mxPoint x="355.8" y="1154.1100000000001" as="sourcePoint" />
            <Array as="points">
              <mxPoint x="280" y="1154" />
            </Array>
          </mxGeometry>
        </mxCell>
        <mxCell id="SQHHKWCjb3PO0AhV1Bch-44" style="edgeStyle=orthogonalEdgeStyle;rounded=0;orthogonalLoop=1;jettySize=auto;html=1;entryX=0.5;entryY=0;entryDx=0;entryDy=0;" parent="1" source="SQHHKWCjb3PO0AhV1Bch-37" edge="1">
          <mxGeometry relative="1" as="geometry">
            <mxPoint x="425" y="1244" as="targetPoint" />
          </mxGeometry>
        </mxCell>
        <mxCell id="SQHHKWCjb3PO0AhV1Bch-45" style="edgeStyle=orthogonalEdgeStyle;rounded=0;orthogonalLoop=1;jettySize=auto;html=1;" parent="1" source="SQHHKWCjb3PO0AhV1Bch-37" edge="1">
          <mxGeometry relative="1" as="geometry">
            <mxPoint x="550" y="1244" as="targetPoint" />
          </mxGeometry>
        </mxCell>
        <mxCell id="SQHHKWCjb3PO0AhV1Bch-47" style="edgeStyle=orthogonalEdgeStyle;rounded=0;orthogonalLoop=1;jettySize=auto;html=1;" parent="1" source="SQHHKWCjb3PO0AhV1Bch-37" edge="1">
          <mxGeometry relative="1" as="geometry">
            <mxPoint x="680" y="1244" as="targetPoint" />
          </mxGeometry>
        </mxCell>
        <mxCell id="SQHHKWCjb3PO0AhV1Bch-49" style="edgeStyle=orthogonalEdgeStyle;rounded=0;orthogonalLoop=1;jettySize=auto;html=1;entryX=0.25;entryY=0;entryDx=0;entryDy=0;" parent="1" source="SQHHKWCjb3PO0AhV1Bch-37" target="SQHHKWCjb3PO0AhV1Bch-57" edge="1">
          <mxGeometry relative="1" as="geometry">
            <mxPoint x="800" y="1244" as="targetPoint" />
          </mxGeometry>
        </mxCell>
        <mxCell id="SQHHKWCjb3PO0AhV1Bch-37" value="Admin" style="ellipse;whiteSpace=wrap;html=1;" parent="1" vertex="1">
          <mxGeometry x="365" y="1114" width="120" height="80" as="geometry" />
        </mxCell>
        <mxCell id="SQHHKWCjb3PO0AhV1Bch-60" style="edgeStyle=orthogonalEdgeStyle;rounded=0;orthogonalLoop=1;jettySize=auto;html=1;entryX=0;entryY=0.5;entryDx=0;entryDy=0;" parent="1" source="SQHHKWCjb3PO0AhV1Bch-53" target="SQHHKWCjb3PO0AhV1Bch-59" edge="1">
          <mxGeometry relative="1" as="geometry">
            <Array as="points">
              <mxPoint x="130" y="1394" />
            </Array>
          </mxGeometry>
        </mxCell>
        <mxCell id="SQHHKWCjb3PO0AhV1Bch-53" value="&#xa;&lt;span style=&quot;color: rgb(240, 240, 240); font-family: Helvetica; font-size: 12px; font-style: normal; font-variant-ligatures: normal; font-variant-caps: normal; font-weight: 400; letter-spacing: normal; orphans: 2; text-align: center; text-indent: 0px; text-transform: none; widows: 2; word-spacing: 0px; -webkit-text-stroke-width: 0px; white-space: normal; background-color: rgb(27, 29, 30); text-decoration-thickness: initial; text-decoration-style: initial; text-decoration-color: initial; display: inline !important; float: none;&quot;&gt;Register Bus Route&lt;/span&gt;&#xa;&#xa;" style="rounded=0;whiteSpace=wrap;html=1;" parent="1" vertex="1">
          <mxGeometry x="70" y="1244" width="120" height="60" as="geometry" />
        </mxCell>
        <mxCell id="SQHHKWCjb3PO0AhV1Bch-54" value="&lt;br&gt;&lt;span style=&quot;color: rgb(240, 240, 240); font-family: Helvetica; font-size: 12px; font-style: normal; font-variant-ligatures: normal; font-variant-caps: normal; font-weight: 400; letter-spacing: normal; orphans: 2; text-align: center; text-indent: 0px; text-transform: none; widows: 2; word-spacing: 0px; -webkit-text-stroke-width: 0px; white-space: normal; background-color: rgb(27, 29, 30); text-decoration-thickness: initial; text-decoration-style: initial; text-decoration-color: initial; display: inline !important; float: none;&quot;&gt;Cancel Bus Route&lt;/span&gt;&lt;div&gt;&lt;br/&gt;&lt;/div&gt;" style="rounded=0;whiteSpace=wrap;html=1;" parent="1" vertex="1">
          <mxGeometry x="220" y="1244" width="120" height="60" as="geometry" />
        </mxCell>
        <mxCell id="SQHHKWCjb3PO0AhV1Bch-62" style="edgeStyle=orthogonalEdgeStyle;rounded=0;orthogonalLoop=1;jettySize=auto;html=1;entryX=0.5;entryY=0;entryDx=0;entryDy=0;" parent="1" source="SQHHKWCjb3PO0AhV1Bch-55" target="SQHHKWCjb3PO0AhV1Bch-59" edge="1">
          <mxGeometry relative="1" as="geometry" />
        </mxCell>
        <mxCell id="SQHHKWCjb3PO0AhV1Bch-55" value="Notification" style="rounded=0;whiteSpace=wrap;html=1;" parent="1" vertex="1">
          <mxGeometry x="365" y="1244" width="120" height="60" as="geometry" />
        </mxCell>
        <mxCell id="SQHHKWCjb3PO0AhV1Bch-63" style="edgeStyle=orthogonalEdgeStyle;rounded=0;orthogonalLoop=1;jettySize=auto;html=1;entryX=1;entryY=0;entryDx=0;entryDy=0;" parent="1" source="SQHHKWCjb3PO0AhV1Bch-56" target="SQHHKWCjb3PO0AhV1Bch-59" edge="1">
          <mxGeometry relative="1" as="geometry">
            <Array as="points">
              <mxPoint x="580" y="1324" />
              <mxPoint x="467" y="1324" />
            </Array>
          </mxGeometry>
        </mxCell>
        <mxCell id="SQHHKWCjb3PO0AhV1Bch-56" value="Bus Information" style="rounded=0;whiteSpace=wrap;html=1;" parent="1" vertex="1">
          <mxGeometry x="500" y="1244" width="120" height="60" as="geometry" />
        </mxCell>
        <mxCell id="SQHHKWCjb3PO0AhV1Bch-57" value="Cancel Ticket" style="rounded=0;whiteSpace=wrap;html=1;" parent="1" vertex="1">
          <mxGeometry x="740" y="1244" width="90" height="60" as="geometry" />
        </mxCell>
        <mxCell id="SQHHKWCjb3PO0AhV1Bch-65" style="edgeStyle=orthogonalEdgeStyle;rounded=0;orthogonalLoop=1;jettySize=auto;html=1;entryX=1;entryY=0.5;entryDx=0;entryDy=0;" parent="1" source="SQHHKWCjb3PO0AhV1Bch-58" target="SQHHKWCjb3PO0AhV1Bch-59" edge="1">
          <mxGeometry relative="1" as="geometry">
            <Array as="points">
              <mxPoint x="680" y="1394" />
            </Array>
          </mxGeometry>
        </mxCell>
        <mxCell id="SQHHKWCjb3PO0AhV1Bch-58" value="Book Ticket" style="rounded=0;whiteSpace=wrap;html=1;" parent="1" vertex="1">
          <mxGeometry x="630" y="1244" width="100" height="60" as="geometry" />
        </mxCell>
        <mxCell id="SQHHKWCjb3PO0AhV1Bch-59" value="Admin" style="ellipse;whiteSpace=wrap;html=1;" parent="1" vertex="1">
          <mxGeometry x="365" y="1354" width="120" height="80" as="geometry" />
        </mxCell>
        <mxCell id="SQHHKWCjb3PO0AhV1Bch-61" style="edgeStyle=orthogonalEdgeStyle;rounded=0;orthogonalLoop=1;jettySize=auto;html=1;entryX=0.042;entryY=0.25;entryDx=0;entryDy=0;entryPerimeter=0;" parent="1" source="SQHHKWCjb3PO0AhV1Bch-54" target="SQHHKWCjb3PO0AhV1Bch-59" edge="1">
          <mxGeometry relative="1" as="geometry">
            <Array as="points">
              <mxPoint x="280" y="1344" />
              <mxPoint x="370" y="1344" />
            </Array>
          </mxGeometry>
        </mxCell>
        <mxCell id="SQHHKWCjb3PO0AhV1Bch-66" style="edgeStyle=orthogonalEdgeStyle;rounded=0;orthogonalLoop=1;jettySize=auto;html=1;entryX=0.958;entryY=0.75;entryDx=0;entryDy=0;entryPerimeter=0;" parent="1" source="SQHHKWCjb3PO0AhV1Bch-57" target="SQHHKWCjb3PO0AhV1Bch-59" edge="1">
          <mxGeometry relative="1" as="geometry">
            <Array as="points">
              <mxPoint x="785" y="1414" />
            </Array>
          </mxGeometry>
        </mxCell>
        <mxCell id="SQHHKWCjb3PO0AhV1Bch-93" style="edgeStyle=orthogonalEdgeStyle;rounded=0;orthogonalLoop=1;jettySize=auto;html=1;entryX=0.5;entryY=0;entryDx=0;entryDy=0;" parent="1" source="SQHHKWCjb3PO0AhV1Bch-73" target="SQHHKWCjb3PO0AhV1Bch-83" edge="1">
          <mxGeometry relative="1" as="geometry" />
        </mxCell>
        <mxCell id="SQHHKWCjb3PO0AhV1Bch-73" value="User" style="ellipse;whiteSpace=wrap;html=1;" parent="1" vertex="1">
          <mxGeometry x="375" y="1494" width="120" height="80" as="geometry" />
        </mxCell>
        <mxCell id="SQHHKWCjb3PO0AhV1Bch-94" style="edgeStyle=orthogonalEdgeStyle;rounded=0;orthogonalLoop=1;jettySize=auto;html=1;entryX=0;entryY=0.5;entryDx=0;entryDy=0;" parent="1" source="SQHHKWCjb3PO0AhV1Bch-80" target="SQHHKWCjb3PO0AhV1Bch-84" edge="1">
          <mxGeometry relative="1" as="geometry">
            <Array as="points">
              <mxPoint x="200" y="1824" />
            </Array>
          </mxGeometry>
        </mxCell>
        <mxCell id="SQHHKWCjb3PO0AhV1Bch-80" value="Bus Information" style="rounded=0;whiteSpace=wrap;html=1;" parent="1" vertex="1">
          <mxGeometry x="130" y="1674" width="120" height="60" as="geometry" />
        </mxCell>
        <mxCell id="SQHHKWCjb3PO0AhV1Bch-96" style="edgeStyle=orthogonalEdgeStyle;rounded=0;orthogonalLoop=1;jettySize=auto;html=1;entryX=1;entryY=0.5;entryDx=0;entryDy=0;" parent="1" source="SQHHKWCjb3PO0AhV1Bch-81" target="SQHHKWCjb3PO0AhV1Bch-84" edge="1">
          <mxGeometry relative="1" as="geometry">
            <Array as="points">
              <mxPoint x="600" y="1824" />
            </Array>
          </mxGeometry>
        </mxCell>
        <mxCell id="SQHHKWCjb3PO0AhV1Bch-81" value="Cancel Ticket" style="rounded=0;whiteSpace=wrap;html=1;" parent="1" vertex="1">
          <mxGeometry x="555" y="1684" width="90" height="60" as="geometry" />
        </mxCell>
        <mxCell id="SQHHKWCjb3PO0AhV1Bch-84" value="User" style="ellipse;whiteSpace=wrap;html=1;" parent="1" vertex="1">
          <mxGeometry x="375" y="1784" width="120" height="80" as="geometry" />
        </mxCell>
        <mxCell id="SQHHKWCjb3PO0AhV1Bch-95" style="edgeStyle=orthogonalEdgeStyle;rounded=0;orthogonalLoop=1;jettySize=auto;html=1;entryX=0.5;entryY=0;entryDx=0;entryDy=0;" parent="1" source="SQHHKWCjb3PO0AhV1Bch-83" target="SQHHKWCjb3PO0AhV1Bch-84" edge="1">
          <mxGeometry relative="1" as="geometry" />
        </mxCell>
        <mxCell id="SQHHKWCjb3PO0AhV1Bch-83" value="Book Ticket" style="rounded=0;whiteSpace=wrap;html=1;" parent="1" vertex="1">
          <mxGeometry x="385" y="1674" width="100" height="60" as="geometry" />
        </mxCell>
        <mxCell id="SQHHKWCjb3PO0AhV1Bch-89" style="edgeStyle=orthogonalEdgeStyle;rounded=0;orthogonalLoop=1;jettySize=auto;html=1;entryX=0.568;entryY=0.028;entryDx=0;entryDy=0;entryPerimeter=0;" parent="1" source="SQHHKWCjb3PO0AhV1Bch-73" target="SQHHKWCjb3PO0AhV1Bch-80" edge="1">
          <mxGeometry relative="1" as="geometry" />
        </mxCell>
        <mxCell id="SQHHKWCjb3PO0AhV1Bch-92" style="edgeStyle=orthogonalEdgeStyle;rounded=0;orthogonalLoop=1;jettySize=auto;html=1;entryX=0.383;entryY=0.013;entryDx=0;entryDy=0;entryPerimeter=0;" parent="1" source="SQHHKWCjb3PO0AhV1Bch-73" target="SQHHKWCjb3PO0AhV1Bch-81" edge="1">
          <mxGeometry relative="1" as="geometry" />
        </mxCell>
        <mxCell id="SQHHKWCjb3PO0AhV1Bch-99" style="edgeStyle=orthogonalEdgeStyle;rounded=0;orthogonalLoop=1;jettySize=auto;html=1;entryX=0.5;entryY=0;entryDx=0;entryDy=0;" parent="1" source="SQHHKWCjb3PO0AhV1Bch-97" target="SQHHKWCjb3PO0AhV1Bch-33" edge="1">
          <mxGeometry relative="1" as="geometry" />
        </mxCell>
        <mxCell id="SQHHKWCjb3PO0AhV1Bch-100" style="edgeStyle=orthogonalEdgeStyle;rounded=0;orthogonalLoop=1;jettySize=auto;html=1;" parent="1" source="SQHHKWCjb3PO0AhV1Bch-97" target="SQHHKWCjb3PO0AhV1Bch-28" edge="1">
          <mxGeometry relative="1" as="geometry" />
        </mxCell>
        <mxCell id="SQHHKWCjb3PO0AhV1Bch-97" value="Login Creds?" style="rhombus;whiteSpace=wrap;html=1;" parent="1" vertex="1">
          <mxGeometry x="377" y="290" width="95" height="80" as="geometry" />
        </mxCell>
        <mxCell id="SQHHKWCjb3PO0AhV1Bch-103" value="No User Registered" style="text;html=1;align=center;verticalAlign=middle;whiteSpace=wrap;rounded=0;" parent="1" vertex="1">
          <mxGeometry x="460" y="330" width="90" height="30" as="geometry" />
        </mxCell>
        <mxCell id="SQHHKWCjb3PO0AhV1Bch-104" value="user Registered" style="text;html=1;align=center;verticalAlign=middle;whiteSpace=wrap;rounded=0;" parent="1" vertex="1">
          <mxGeometry x="420" y="390" width="80" height="30" as="geometry" />
        </mxCell>
        <mxCell id="l2VrBiNuuew72AWs_6SI-3" style="edgeStyle=orthogonalEdgeStyle;rounded=0;orthogonalLoop=1;jettySize=auto;html=1;entryX=0.5;entryY=0;entryDx=0;entryDy=0;" parent="1" source="l2VrBiNuuew72AWs_6SI-2" target="SQHHKWCjb3PO0AhV1Bch-97" edge="1">
          <mxGeometry relative="1" as="geometry" />
        </mxCell>
        <mxCell id="l2VrBiNuuew72AWs_6SI-4" style="edgeStyle=orthogonalEdgeStyle;rounded=0;orthogonalLoop=1;jettySize=auto;html=1;entryX=0.5;entryY=0;entryDx=0;entryDy=0;" parent="1" source="l2VrBiNuuew72AWs_6SI-2" target="SQHHKWCjb3PO0AhV1Bch-32" edge="1">
          <mxGeometry relative="1" as="geometry" />
        </mxCell>
        <mxCell id="l2VrBiNuuew72AWs_6SI-2" value="Select one Option" style="rhombus;whiteSpace=wrap;html=1;" parent="1" vertex="1">
          <mxGeometry x="385" y="150" width="80" height="80" as="geometry" />
        </mxCell>
        <mxCell id="l2VrBiNuuew72AWs_6SI-5" value="Admin" style="text;html=1;align=center;verticalAlign=middle;whiteSpace=wrap;rounded=0;" parent="1" vertex="1">
          <mxGeometry x="325" y="160" width="60" height="30" as="geometry" />
        </mxCell>
        <mxCell id="l2VrBiNuuew72AWs_6SI-6" value="User" style="text;html=1;align=center;verticalAlign=middle;whiteSpace=wrap;rounded=0;" parent="1" vertex="1">
          <mxGeometry x="425" y="230" width="60" height="30" as="geometry" />
        </mxCell>
      </root>
    </mxGraphModel>
  </diagram>
  <diagram id="x_i5GHga04HX7MNkcUI5" name="Functions">
    <mxGraphModel dx="1036" dy="654" grid="1" gridSize="10" guides="1" tooltips="1" connect="1" arrows="1" fold="1" page="1" pageScale="1" pageWidth="850" pageHeight="1100" math="0" shadow="0">
      <root>
        <mxCell id="0" />
        <mxCell id="1" parent="0" />
        <mxCell id="7YyONAVavq1SR-eB-M4c-1" value="&lt;p style=&quot;margin:0px;margin-top:4px;text-align:center;&quot;&gt;&lt;br&gt;&lt;/p&gt;&lt;p style=&quot;margin:0px;margin-top:4px;text-align:center;&quot;&gt;&lt;br&gt;&lt;/p&gt;&lt;p style=&quot;margin:0px;margin-top:4px;text-align:center;&quot;&gt;&lt;br&gt;&lt;/p&gt;&lt;p style=&quot;margin:0px;margin-top:4px;text-align:center;&quot;&gt;&lt;br&gt;&lt;/p&gt;" style="verticalAlign=top;align=left;overflow=fill;html=1;whiteSpace=wrap;" vertex="1" parent="1">
          <mxGeometry x="80" y="40" width="190" height="140" as="geometry" />
        </mxCell>
        <mxCell id="7YyONAVavq1SR-eB-M4c-2" value="Register Bus Route" style="whiteSpace=wrap;html=1;" vertex="1" parent="1">
          <mxGeometry x="80" y="40" width="190" height="40" as="geometry" />
        </mxCell>
      </root>
    </mxGraphModel>
  </diagram>
</mxfile>
